<mxfile host="app.diagrams.net" modified="2023-01-13T08:27:50.357Z" agent="5.0 (Windows NT 10.0; Win64; x64) AppleWebKit/537.36 (KHTML, like Gecko) Chrome/108.0.0.0 Safari/537.36" version="20.8.5" etag="xuAulY5qPjx6mcAaiNVX" type="github">
  <diagram id="LCj3zn4XzmhaDpD0k8ik" name="Page-1">
    <mxGraphModel dx="3240" dy="1178" grid="1" gridSize="10" guides="1" tooltips="1" connect="1" arrows="1" fold="1" page="1" pageScale="1" pageWidth="850" pageHeight="1100" math="0" shadow="0">
      <root>
        <mxCell id="0" />
        <mxCell id="1" parent="0" />
        <mxCell id="PabJdVPp8om9s6cSy0Pp-1" value="AWS Cloud" style="points=[[0,0],[0.25,0],[0.5,0],[0.75,0],[1,0],[1,0.25],[1,0.5],[1,0.75],[1,1],[0.75,1],[0.5,1],[0.25,1],[0,1],[0,0.75],[0,0.5],[0,0.25]];outlineConnect=0;gradientColor=none;html=1;whiteSpace=wrap;fontSize=12;fontStyle=0;container=1;pointerEvents=0;collapsible=0;recursiveResize=0;shape=mxgraph.aws4.group;grIcon=mxgraph.aws4.group_aws_cloud_alt;strokeColor=#232F3E;fillColor=none;verticalAlign=top;align=left;spacingLeft=30;fontColor=#232F3E;dashed=0;" vertex="1" parent="1">
          <mxGeometry y="160" width="2150" height="1210" as="geometry" />
        </mxCell>
        <mxCell id="PabJdVPp8om9s6cSy0Pp-2" value="VPC" style="points=[[0,0],[0.25,0],[0.5,0],[0.75,0],[1,0],[1,0.25],[1,0.5],[1,0.75],[1,1],[0.75,1],[0.5,1],[0.25,1],[0,1],[0,0.75],[0,0.5],[0,0.25]];outlineConnect=0;gradientColor=none;html=1;whiteSpace=wrap;fontSize=12;fontStyle=0;container=1;pointerEvents=0;collapsible=0;recursiveResize=0;shape=mxgraph.aws4.group;grIcon=mxgraph.aws4.group_vpc;strokeColor=#248814;fillColor=none;verticalAlign=top;align=left;spacingLeft=30;fontColor=#AAB7B8;dashed=0;" vertex="1" parent="PabJdVPp8om9s6cSy0Pp-1">
          <mxGeometry x="150" y="110" width="1840" height="1050" as="geometry" />
        </mxCell>
        <mxCell id="PabJdVPp8om9s6cSy0Pp-3" value="Public subnet" style="points=[[0,0],[0.25,0],[0.5,0],[0.75,0],[1,0],[1,0.25],[1,0.5],[1,0.75],[1,1],[0.75,1],[0.5,1],[0.25,1],[0,1],[0,0.75],[0,0.5],[0,0.25]];outlineConnect=0;gradientColor=none;html=1;whiteSpace=wrap;fontSize=12;fontStyle=0;container=1;pointerEvents=0;collapsible=0;recursiveResize=0;shape=mxgraph.aws4.group;grIcon=mxgraph.aws4.group_security_group;grStroke=0;strokeColor=#248814;fillColor=#E9F3E6;verticalAlign=top;align=left;spacingLeft=30;fontColor=#248814;dashed=0;" vertex="1" parent="PabJdVPp8om9s6cSy0Pp-2">
          <mxGeometry x="60" y="40" width="270" height="300" as="geometry" />
        </mxCell>
        <mxCell id="PabJdVPp8om9s6cSy0Pp-4" value="Elastic LoadBalancing" style="sketch=0;points=[[0,0,0],[0.25,0,0],[0.5,0,0],[0.75,0,0],[1,0,0],[0,1,0],[0.25,1,0],[0.5,1,0],[0.75,1,0],[1,1,0],[0,0.25,0],[0,0.5,0],[0,0.75,0],[1,0.25,0],[1,0.5,0],[1,0.75,0]];outlineConnect=0;fontColor=#232F3E;gradientColor=#945DF2;gradientDirection=north;fillColor=#5A30B5;strokeColor=#ffffff;dashed=0;verticalLabelPosition=bottom;verticalAlign=top;align=center;html=1;fontSize=12;fontStyle=0;aspect=fixed;shape=mxgraph.aws4.resourceIcon;resIcon=mxgraph.aws4.elastic_load_balancing;" vertex="1" parent="PabJdVPp8om9s6cSy0Pp-3">
          <mxGeometry x="80" y="60" width="70" height="70" as="geometry" />
        </mxCell>
        <mxCell id="PabJdVPp8om9s6cSy0Pp-5" value="" style="sketch=0;outlineConnect=0;fontColor=#232F3E;gradientColor=none;fillColor=#4D27AA;strokeColor=none;dashed=0;verticalLabelPosition=bottom;verticalAlign=top;align=center;html=1;fontSize=12;fontStyle=0;aspect=fixed;pointerEvents=1;shape=mxgraph.aws4.nat_gateway;" vertex="1" parent="PabJdVPp8om9s6cSy0Pp-2">
          <mxGeometry x="-20" y="880" width="70" height="70" as="geometry" />
        </mxCell>
        <mxCell id="PabJdVPp8om9s6cSy0Pp-6" value="Private subnet" style="points=[[0,0],[0.25,0],[0.5,0],[0.75,0],[1,0],[1,0.25],[1,0.5],[1,0.75],[1,1],[0.75,1],[0.5,1],[0.25,1],[0,1],[0,0.75],[0,0.5],[0,0.25]];outlineConnect=0;gradientColor=none;html=1;whiteSpace=wrap;fontSize=12;fontStyle=0;container=1;pointerEvents=0;collapsible=0;recursiveResize=0;shape=mxgraph.aws4.group;grIcon=mxgraph.aws4.group_security_group;grStroke=0;strokeColor=#147EBA;fillColor=#E6F2F8;verticalAlign=top;align=left;spacingLeft=30;fontColor=#147EBA;dashed=0;" vertex="1" parent="PabJdVPp8om9s6cSy0Pp-2">
          <mxGeometry x="430" y="40" width="1360" height="980" as="geometry" />
        </mxCell>
        <mxCell id="PabJdVPp8om9s6cSy0Pp-33" style="edgeStyle=orthogonalEdgeStyle;rounded=1;orthogonalLoop=1;jettySize=auto;html=1;entryX=0.5;entryY=0;entryDx=0;entryDy=0;entryPerimeter=0;startArrow=classic;startFill=1;" edge="1" parent="PabJdVPp8om9s6cSy0Pp-6" source="PabJdVPp8om9s6cSy0Pp-8" target="PabJdVPp8om9s6cSy0Pp-31">
          <mxGeometry relative="1" as="geometry" />
        </mxCell>
        <mxCell id="PabJdVPp8om9s6cSy0Pp-42" style="edgeStyle=orthogonalEdgeStyle;rounded=1;orthogonalLoop=1;jettySize=auto;html=1;entryX=0.5;entryY=0;entryDx=0;entryDy=0;entryPerimeter=0;exitX=0.75;exitY=1;exitDx=0;exitDy=0;" edge="1" parent="PabJdVPp8om9s6cSy0Pp-6" source="PabJdVPp8om9s6cSy0Pp-8" target="PabJdVPp8om9s6cSy0Pp-38">
          <mxGeometry relative="1" as="geometry" />
        </mxCell>
        <mxCell id="PabJdVPp8om9s6cSy0Pp-75" style="edgeStyle=orthogonalEdgeStyle;rounded=1;orthogonalLoop=1;jettySize=auto;html=1;entryX=0.5;entryY=0;entryDx=0;entryDy=0;entryPerimeter=0;startArrow=classic;startFill=1;" edge="1" parent="PabJdVPp8om9s6cSy0Pp-6" source="PabJdVPp8om9s6cSy0Pp-8" target="PabJdVPp8om9s6cSy0Pp-74">
          <mxGeometry relative="1" as="geometry" />
        </mxCell>
        <mxCell id="PabJdVPp8om9s6cSy0Pp-8" value="&lt;b&gt;Tnex Microservces&lt;/b&gt;" style="outlineConnect=0;gradientColor=none;html=1;whiteSpace=wrap;fontSize=12;fontStyle=0;strokeColor=#879196;fillColor=none;verticalAlign=top;align=left;fontColor=#879196;dashed=1;spacingTop=3;" vertex="1" parent="PabJdVPp8om9s6cSy0Pp-6">
          <mxGeometry x="313" y="20" width="787" height="260" as="geometry" />
        </mxCell>
        <mxCell id="PabJdVPp8om9s6cSy0Pp-15" value="" style="sketch=0;points=[[0,0,0],[0.25,0,0],[0.5,0,0],[0.75,0,0],[1,0,0],[0,1,0],[0.25,1,0],[0.5,1,0],[0.75,1,0],[1,1,0],[0,0.25,0],[0,0.5,0],[0,0.75,0],[1,0.25,0],[1,0.5,0],[1,0.75,0]];outlineConnect=0;fontColor=#232F3E;gradientColor=#F78E04;gradientDirection=north;fillColor=#D05C17;strokeColor=#ffffff;dashed=0;verticalLabelPosition=bottom;verticalAlign=top;align=center;html=1;fontSize=12;fontStyle=0;aspect=fixed;shape=mxgraph.aws4.resourceIcon;resIcon=mxgraph.aws4.fargate;" vertex="1" parent="PabJdVPp8om9s6cSy0Pp-6">
          <mxGeometry x="350" y="50" width="70" height="70" as="geometry" />
        </mxCell>
        <mxCell id="PabJdVPp8om9s6cSy0Pp-17" value="" style="outlineConnect=0;gradientColor=none;html=1;whiteSpace=wrap;fontSize=12;fontStyle=0;strokeColor=#879196;fillColor=none;verticalAlign=top;align=center;fontColor=#879196;dashed=1;spacingTop=3;" vertex="1" parent="PabJdVPp8om9s6cSy0Pp-6">
          <mxGeometry x="20" y="30" width="170" height="290" as="geometry" />
        </mxCell>
        <mxCell id="PabJdVPp8om9s6cSy0Pp-23" style="edgeStyle=orthogonalEdgeStyle;rounded=0;orthogonalLoop=1;jettySize=auto;html=1;" edge="1" parent="PabJdVPp8om9s6cSy0Pp-6" source="PabJdVPp8om9s6cSy0Pp-18" target="PabJdVPp8om9s6cSy0Pp-19">
          <mxGeometry relative="1" as="geometry" />
        </mxCell>
        <mxCell id="PabJdVPp8om9s6cSy0Pp-18" value="Elastic LoadBalancing" style="sketch=0;points=[[0,0,0],[0.25,0,0],[0.5,0,0],[0.75,0,0],[1,0,0],[0,1,0],[0.25,1,0],[0.5,1,0],[0.75,1,0],[1,1,0],[0,0.25,0],[0,0.5,0],[0,0.75,0],[1,0.25,0],[1,0.5,0],[1,0.75,0]];outlineConnect=0;fontColor=#232F3E;gradientColor=#945DF2;gradientDirection=north;fillColor=#5A30B5;strokeColor=#ffffff;dashed=0;verticalLabelPosition=bottom;verticalAlign=top;align=center;html=1;fontSize=12;fontStyle=0;aspect=fixed;shape=mxgraph.aws4.resourceIcon;resIcon=mxgraph.aws4.elastic_load_balancing;" vertex="1" parent="PabJdVPp8om9s6cSy0Pp-6">
          <mxGeometry x="70" y="60" width="70" height="70" as="geometry" />
        </mxCell>
        <mxCell id="PabJdVPp8om9s6cSy0Pp-24" style="edgeStyle=orthogonalEdgeStyle;rounded=1;orthogonalLoop=1;jettySize=auto;html=1;entryX=0;entryY=0.5;entryDx=0;entryDy=0;" edge="1" parent="PabJdVPp8om9s6cSy0Pp-6" source="PabJdVPp8om9s6cSy0Pp-19" target="PabJdVPp8om9s6cSy0Pp-8">
          <mxGeometry relative="1" as="geometry" />
        </mxCell>
        <mxCell id="PabJdVPp8om9s6cSy0Pp-28" style="edgeStyle=orthogonalEdgeStyle;rounded=1;orthogonalLoop=1;jettySize=auto;html=1;entryX=0;entryY=0.5;entryDx=0;entryDy=0;" edge="1" parent="PabJdVPp8om9s6cSy0Pp-6" source="PabJdVPp8om9s6cSy0Pp-19" target="PabJdVPp8om9s6cSy0Pp-26">
          <mxGeometry relative="1" as="geometry" />
        </mxCell>
        <mxCell id="PabJdVPp8om9s6cSy0Pp-19" value="API Gateway" style="sketch=0;points=[[0,0,0],[0.25,0,0],[0.5,0,0],[0.75,0,0],[1,0,0],[0,1,0],[0.25,1,0],[0.5,1,0],[0.75,1,0],[1,1,0],[0,0.25,0],[0,0.5,0],[0,0.75,0],[1,0.25,0],[1,0.5,0],[1,0.75,0]];outlineConnect=0;fontColor=#232F3E;gradientColor=#FF4F8B;gradientDirection=north;fillColor=#BC1356;strokeColor=#ffffff;dashed=0;verticalLabelPosition=bottom;verticalAlign=top;align=center;html=1;fontSize=12;fontStyle=0;aspect=fixed;shape=mxgraph.aws4.resourceIcon;resIcon=mxgraph.aws4.api_gateway;" vertex="1" parent="PabJdVPp8om9s6cSy0Pp-6">
          <mxGeometry x="70" y="180" width="70" height="70" as="geometry" />
        </mxCell>
        <mxCell id="PabJdVPp8om9s6cSy0Pp-35" style="edgeStyle=orthogonalEdgeStyle;rounded=1;orthogonalLoop=1;jettySize=auto;html=1;entryX=0.5;entryY=0;entryDx=0;entryDy=0;entryPerimeter=0;startArrow=classic;startFill=1;" edge="1" parent="PabJdVPp8om9s6cSy0Pp-6" source="PabJdVPp8om9s6cSy0Pp-26" target="PabJdVPp8om9s6cSy0Pp-32">
          <mxGeometry relative="1" as="geometry">
            <Array as="points">
              <mxPoint x="625" y="470" />
            </Array>
          </mxGeometry>
        </mxCell>
        <mxCell id="PabJdVPp8om9s6cSy0Pp-44" style="edgeStyle=orthogonalEdgeStyle;rounded=1;orthogonalLoop=1;jettySize=auto;html=1;entryX=0;entryY=0.5;entryDx=0;entryDy=0;entryPerimeter=0;" edge="1" parent="PabJdVPp8om9s6cSy0Pp-6" source="PabJdVPp8om9s6cSy0Pp-26" target="PabJdVPp8om9s6cSy0Pp-39">
          <mxGeometry relative="1" as="geometry" />
        </mxCell>
        <mxCell id="PabJdVPp8om9s6cSy0Pp-26" value="Baas Microservices" style="outlineConnect=0;gradientColor=none;html=1;whiteSpace=wrap;fontSize=12;fontStyle=1;strokeColor=#879196;fillColor=none;verticalAlign=top;align=left;fontColor=#879196;dashed=1;spacingTop=3;" vertex="1" parent="PabJdVPp8om9s6cSy0Pp-6">
          <mxGeometry x="312" y="406" width="250" height="175" as="geometry" />
        </mxCell>
        <mxCell id="PabJdVPp8om9s6cSy0Pp-30" value="" style="outlineConnect=0;gradientColor=none;html=1;whiteSpace=wrap;fontSize=12;fontStyle=0;strokeColor=#879196;fillColor=none;verticalAlign=top;align=center;fontColor=#879196;dashed=1;spacingTop=3;" vertex="1" parent="PabJdVPp8om9s6cSy0Pp-6">
          <mxGeometry x="760" y="330" width="340" height="340" as="geometry" />
        </mxCell>
        <mxCell id="PabJdVPp8om9s6cSy0Pp-34" style="edgeStyle=orthogonalEdgeStyle;rounded=1;orthogonalLoop=1;jettySize=auto;html=1;entryX=1;entryY=0.25;entryDx=0;entryDy=0;exitX=0.5;exitY=1;exitDx=0;exitDy=0;exitPerimeter=0;startArrow=classic;startFill=1;" edge="1" parent="PabJdVPp8om9s6cSy0Pp-6" source="PabJdVPp8om9s6cSy0Pp-31" target="PabJdVPp8om9s6cSy0Pp-26">
          <mxGeometry relative="1" as="geometry" />
        </mxCell>
        <mxCell id="PabJdVPp8om9s6cSy0Pp-31" value="API Gateway" style="sketch=0;points=[[0,0,0],[0.25,0,0],[0.5,0,0],[0.75,0,0],[1,0,0],[0,1,0],[0.25,1,0],[0.5,1,0],[0.75,1,0],[1,1,0],[0,0.25,0],[0,0.5,0],[0,0.75,0],[1,0.25,0],[1,0.5,0],[1,0.75,0]];outlineConnect=0;fontColor=#232F3E;gradientColor=#FF4F8B;gradientDirection=north;fillColor=#BC1356;strokeColor=#ffffff;dashed=0;verticalLabelPosition=bottom;verticalAlign=top;align=center;html=1;fontSize=12;fontStyle=0;aspect=fixed;shape=mxgraph.aws4.resourceIcon;resIcon=mxgraph.aws4.api_gateway;" vertex="1" parent="PabJdVPp8om9s6cSy0Pp-6">
          <mxGeometry x="590" y="335" width="70" height="70" as="geometry" />
        </mxCell>
        <mxCell id="PabJdVPp8om9s6cSy0Pp-32" value="API Gateway" style="sketch=0;points=[[0,0,0],[0.25,0,0],[0.5,0,0],[0.75,0,0],[1,0,0],[0,1,0],[0.25,1,0],[0.5,1,0],[0.75,1,0],[1,1,0],[0,0.25,0],[0,0.5,0],[0,0.75,0],[1,0.25,0],[1,0.5,0],[1,0.75,0]];outlineConnect=0;fontColor=#232F3E;gradientColor=#FF4F8B;gradientDirection=north;fillColor=#BC1356;strokeColor=#ffffff;dashed=0;verticalLabelPosition=bottom;verticalAlign=top;align=center;html=1;fontSize=12;fontStyle=0;aspect=fixed;shape=mxgraph.aws4.resourceIcon;resIcon=mxgraph.aws4.api_gateway;" vertex="1" parent="PabJdVPp8om9s6cSy0Pp-6">
          <mxGeometry x="590" y="576" width="70" height="70" as="geometry" />
        </mxCell>
        <mxCell id="PabJdVPp8om9s6cSy0Pp-38" value="Tnex Database" style="sketch=0;points=[[0,0,0],[0.25,0,0],[0.5,0,0],[0.75,0,0],[1,0,0],[0,1,0],[0.25,1,0],[0.5,1,0],[0.75,1,0],[1,1,0],[0,0.25,0],[0,0.5,0],[0,0.75,0],[1,0.25,0],[1,0.5,0],[1,0.75,0]];outlineConnect=0;fontColor=#232F3E;gradientColor=#4D72F3;gradientDirection=north;fillColor=#3334B9;strokeColor=#ffffff;dashed=0;verticalLabelPosition=bottom;verticalAlign=top;align=center;html=1;fontSize=12;fontStyle=0;aspect=fixed;shape=mxgraph.aws4.resourceIcon;resIcon=mxgraph.aws4.rds;" vertex="1" parent="PabJdVPp8om9s6cSy0Pp-6">
          <mxGeometry x="864" y="349" width="78" height="78" as="geometry" />
        </mxCell>
        <mxCell id="PabJdVPp8om9s6cSy0Pp-39" value="Baas Database" style="sketch=0;points=[[0,0,0],[0.25,0,0],[0.5,0,0],[0.75,0,0],[1,0,0],[0,1,0],[0.25,1,0],[0.5,1,0],[0.75,1,0],[1,1,0],[0,0.25,0],[0,0.5,0],[0,0.75,0],[1,0.25,0],[1,0.5,0],[1,0.75,0]];outlineConnect=0;fontColor=#232F3E;gradientColor=#4D72F3;gradientDirection=north;fillColor=#3334B9;strokeColor=#ffffff;dashed=0;verticalLabelPosition=bottom;verticalAlign=top;align=center;html=1;fontSize=12;fontStyle=0;aspect=fixed;shape=mxgraph.aws4.resourceIcon;resIcon=mxgraph.aws4.rds;" vertex="1" parent="PabJdVPp8om9s6cSy0Pp-6">
          <mxGeometry x="780" y="454.5" width="78" height="78" as="geometry" />
        </mxCell>
        <mxCell id="PabJdVPp8om9s6cSy0Pp-40" value="Fccom Database" style="sketch=0;points=[[0,0,0],[0.25,0,0],[0.5,0,0],[0.75,0,0],[1,0,0],[0,1,0],[0.25,1,0],[0.5,1,0],[0.75,1,0],[1,1,0],[0,0.25,0],[0,0.5,0],[0,0.75,0],[1,0.25,0],[1,0.5,0],[1,0.75,0]];outlineConnect=0;fontColor=#232F3E;gradientColor=#4D72F3;gradientDirection=north;fillColor=#3334B9;strokeColor=#ffffff;dashed=0;verticalLabelPosition=bottom;verticalAlign=top;align=center;html=1;fontSize=12;fontStyle=0;aspect=fixed;shape=mxgraph.aws4.resourceIcon;resIcon=mxgraph.aws4.rds;" vertex="1" parent="PabJdVPp8om9s6cSy0Pp-6">
          <mxGeometry x="866" y="554" width="78" height="78" as="geometry" />
        </mxCell>
        <mxCell id="PabJdVPp8om9s6cSy0Pp-41" value="ElastiCache" style="sketch=0;outlineConnect=0;fontColor=#232F3E;gradientColor=none;fillColor=#2E27AD;strokeColor=none;dashed=0;verticalLabelPosition=bottom;verticalAlign=top;align=center;html=1;fontSize=12;fontStyle=0;aspect=fixed;pointerEvents=1;shape=mxgraph.aws4.elasticache_for_memcached;" vertex="1" parent="PabJdVPp8om9s6cSy0Pp-6">
          <mxGeometry x="970" y="455" width="78" height="69" as="geometry" />
        </mxCell>
        <mxCell id="PabJdVPp8om9s6cSy0Pp-45" value="Baas-Scoring" style="sketch=0;points=[[0,0,0],[0.25,0,0],[0.5,0,0],[0.75,0,0],[1,0,0],[0,1,0],[0.25,1,0],[0.5,1,0],[0.75,1,0],[1,1,0],[0,0.25,0],[0,0.5,0],[0,0.75,0],[1,0.25,0],[1,0.5,0],[1,0.75,0]];outlineConnect=0;fontColor=#232F3E;gradientColor=#F78E04;gradientDirection=north;fillColor=#D05C17;strokeColor=#ffffff;dashed=0;verticalLabelPosition=bottom;verticalAlign=top;align=center;html=1;fontSize=12;fontStyle=0;aspect=fixed;shape=mxgraph.aws4.resourceIcon;resIcon=mxgraph.aws4.fargate;" vertex="1" parent="PabJdVPp8om9s6cSy0Pp-6">
          <mxGeometry x="342" y="455" width="70" height="70" as="geometry" />
        </mxCell>
        <mxCell id="PabJdVPp8om9s6cSy0Pp-64" value="" style="sketch=0;points=[[0,0,0],[0.25,0,0],[0.5,0,0],[0.75,0,0],[1,0,0],[0,1,0],[0.25,1,0],[0.5,1,0],[0.75,1,0],[1,1,0],[0,0.25,0],[0,0.5,0],[0,0.75,0],[1,0.25,0],[1,0.5,0],[1,0.75,0]];outlineConnect=0;fontColor=#232F3E;gradientColor=#F78E04;gradientDirection=north;fillColor=#D05C17;strokeColor=#ffffff;dashed=0;verticalLabelPosition=bottom;verticalAlign=top;align=center;html=1;fontSize=12;fontStyle=0;aspect=fixed;shape=mxgraph.aws4.resourceIcon;resIcon=mxgraph.aws4.fargate;" vertex="1" parent="PabJdVPp8om9s6cSy0Pp-6">
          <mxGeometry x="492" y="50" width="70" height="70" as="geometry" />
        </mxCell>
        <mxCell id="PabJdVPp8om9s6cSy0Pp-65" value="" style="sketch=0;points=[[0,0,0],[0.25,0,0],[0.5,0,0],[0.75,0,0],[1,0,0],[0,1,0],[0.25,1,0],[0.5,1,0],[0.75,1,0],[1,1,0],[0,0.25,0],[0,0.5,0],[0,0.75,0],[1,0.25,0],[1,0.5,0],[1,0.75,0]];outlineConnect=0;fontColor=#232F3E;gradientColor=#F78E04;gradientDirection=north;fillColor=#D05C17;strokeColor=#ffffff;dashed=0;verticalLabelPosition=bottom;verticalAlign=top;align=center;html=1;fontSize=12;fontStyle=0;aspect=fixed;shape=mxgraph.aws4.resourceIcon;resIcon=mxgraph.aws4.fargate;" vertex="1" parent="PabJdVPp8om9s6cSy0Pp-6">
          <mxGeometry x="650" y="50" width="70" height="70" as="geometry" />
        </mxCell>
        <mxCell id="PabJdVPp8om9s6cSy0Pp-66" value="" style="sketch=0;points=[[0,0,0],[0.25,0,0],[0.5,0,0],[0.75,0,0],[1,0,0],[0,1,0],[0.25,1,0],[0.5,1,0],[0.75,1,0],[1,1,0],[0,0.25,0],[0,0.5,0],[0,0.75,0],[1,0.25,0],[1,0.5,0],[1,0.75,0]];outlineConnect=0;fontColor=#232F3E;gradientColor=#F78E04;gradientDirection=north;fillColor=#D05C17;strokeColor=#ffffff;dashed=0;verticalLabelPosition=bottom;verticalAlign=top;align=center;html=1;fontSize=12;fontStyle=0;aspect=fixed;shape=mxgraph.aws4.resourceIcon;resIcon=mxgraph.aws4.fargate;" vertex="1" parent="PabJdVPp8om9s6cSy0Pp-6">
          <mxGeometry x="810" y="50" width="70" height="70" as="geometry" />
        </mxCell>
        <mxCell id="PabJdVPp8om9s6cSy0Pp-67" value="" style="sketch=0;points=[[0,0,0],[0.25,0,0],[0.5,0,0],[0.75,0,0],[1,0,0],[0,1,0],[0.25,1,0],[0.5,1,0],[0.75,1,0],[1,1,0],[0,0.25,0],[0,0.5,0],[0,0.75,0],[1,0.25,0],[1,0.5,0],[1,0.75,0]];outlineConnect=0;fontColor=#232F3E;gradientColor=#F78E04;gradientDirection=north;fillColor=#D05C17;strokeColor=#ffffff;dashed=0;verticalLabelPosition=bottom;verticalAlign=top;align=center;html=1;fontSize=12;fontStyle=0;aspect=fixed;shape=mxgraph.aws4.resourceIcon;resIcon=mxgraph.aws4.fargate;" vertex="1" parent="PabJdVPp8om9s6cSy0Pp-6">
          <mxGeometry x="970" y="50" width="70" height="70" as="geometry" />
        </mxCell>
        <mxCell id="PabJdVPp8om9s6cSy0Pp-68" value="" style="sketch=0;points=[[0,0,0],[0.25,0,0],[0.5,0,0],[0.75,0,0],[1,0,0],[0,1,0],[0.25,1,0],[0.5,1,0],[0.75,1,0],[1,1,0],[0,0.25,0],[0,0.5,0],[0,0.75,0],[1,0.25,0],[1,0.5,0],[1,0.75,0]];outlineConnect=0;fontColor=#232F3E;gradientColor=#F78E04;gradientDirection=north;fillColor=#D05C17;strokeColor=#ffffff;dashed=0;verticalLabelPosition=bottom;verticalAlign=top;align=center;html=1;fontSize=12;fontStyle=0;aspect=fixed;shape=mxgraph.aws4.resourceIcon;resIcon=mxgraph.aws4.fargate;" vertex="1" parent="PabJdVPp8om9s6cSy0Pp-6">
          <mxGeometry x="350" y="170" width="70" height="70" as="geometry" />
        </mxCell>
        <mxCell id="PabJdVPp8om9s6cSy0Pp-69" value="" style="sketch=0;points=[[0,0,0],[0.25,0,0],[0.5,0,0],[0.75,0,0],[1,0,0],[0,1,0],[0.25,1,0],[0.5,1,0],[0.75,1,0],[1,1,0],[0,0.25,0],[0,0.5,0],[0,0.75,0],[1,0.25,0],[1,0.5,0],[1,0.75,0]];outlineConnect=0;fontColor=#232F3E;gradientColor=#F78E04;gradientDirection=north;fillColor=#D05C17;strokeColor=#ffffff;dashed=0;verticalLabelPosition=bottom;verticalAlign=top;align=center;html=1;fontSize=12;fontStyle=0;aspect=fixed;shape=mxgraph.aws4.resourceIcon;resIcon=mxgraph.aws4.fargate;" vertex="1" parent="PabJdVPp8om9s6cSy0Pp-6">
          <mxGeometry x="492" y="170" width="70" height="70" as="geometry" />
        </mxCell>
        <mxCell id="PabJdVPp8om9s6cSy0Pp-70" value="" style="sketch=0;points=[[0,0,0],[0.25,0,0],[0.5,0,0],[0.75,0,0],[1,0,0],[0,1,0],[0.25,1,0],[0.5,1,0],[0.75,1,0],[1,1,0],[0,0.25,0],[0,0.5,0],[0,0.75,0],[1,0.25,0],[1,0.5,0],[1,0.75,0]];outlineConnect=0;fontColor=#232F3E;gradientColor=#F78E04;gradientDirection=north;fillColor=#D05C17;strokeColor=#ffffff;dashed=0;verticalLabelPosition=bottom;verticalAlign=top;align=center;html=1;fontSize=12;fontStyle=0;aspect=fixed;shape=mxgraph.aws4.resourceIcon;resIcon=mxgraph.aws4.fargate;" vertex="1" parent="PabJdVPp8om9s6cSy0Pp-6">
          <mxGeometry x="650" y="170" width="70" height="70" as="geometry" />
        </mxCell>
        <mxCell id="PabJdVPp8om9s6cSy0Pp-74" value="Kafka" style="sketch=0;points=[[0,0,0],[0.25,0,0],[0.5,0,0],[0.75,0,0],[1,0,0],[0,1,0],[0.25,1,0],[0.5,1,0],[0.75,1,0],[1,1,0],[0,0.25,0],[0,0.5,0],[0,0.75,0],[1,0.25,0],[1,0.5,0],[1,0.75,0]];outlineConnect=0;fontColor=#232F3E;gradientColor=#945DF2;gradientDirection=north;fillColor=#5A30B5;strokeColor=#ffffff;dashed=0;verticalLabelPosition=bottom;verticalAlign=top;align=center;html=1;fontSize=12;fontStyle=0;aspect=fixed;shape=mxgraph.aws4.resourceIcon;resIcon=mxgraph.aws4.managed_streaming_for_kafka;" vertex="1" parent="PabJdVPp8om9s6cSy0Pp-6">
          <mxGeometry x="1180" y="451" width="78" height="78" as="geometry" />
        </mxCell>
        <mxCell id="PabJdVPp8om9s6cSy0Pp-79" value="Baas-Report" style="sketch=0;points=[[0,0,0],[0.25,0,0],[0.5,0,0],[0.75,0,0],[1,0,0],[0,1,0],[0.25,1,0],[0.5,1,0],[0.75,1,0],[1,1,0],[0,0.25,0],[0,0.5,0],[0,0.75,0],[1,0.25,0],[1,0.5,0],[1,0.75,0]];outlineConnect=0;fontColor=#232F3E;gradientColor=#F78E04;gradientDirection=north;fillColor=#D05C17;strokeColor=#ffffff;dashed=0;verticalLabelPosition=bottom;verticalAlign=top;align=center;html=1;fontSize=12;fontStyle=0;aspect=fixed;shape=mxgraph.aws4.resourceIcon;resIcon=mxgraph.aws4.fargate;" vertex="1" parent="PabJdVPp8om9s6cSy0Pp-6">
          <mxGeometry x="465" y="455" width="70" height="70" as="geometry" />
        </mxCell>
        <mxCell id="PabJdVPp8om9s6cSy0Pp-22" style="edgeStyle=orthogonalEdgeStyle;rounded=0;orthogonalLoop=1;jettySize=auto;html=1;" edge="1" parent="PabJdVPp8om9s6cSy0Pp-2" source="PabJdVPp8om9s6cSy0Pp-4" target="PabJdVPp8om9s6cSy0Pp-18">
          <mxGeometry relative="1" as="geometry" />
        </mxCell>
        <mxCell id="PabJdVPp8om9s6cSy0Pp-71" style="edgeStyle=orthogonalEdgeStyle;rounded=1;orthogonalLoop=1;jettySize=auto;html=1;" edge="1" parent="PabJdVPp8om9s6cSy0Pp-2" source="PabJdVPp8om9s6cSy0Pp-27" target="PabJdVPp8om9s6cSy0Pp-5">
          <mxGeometry relative="1" as="geometry">
            <Array as="points">
              <mxPoint x="480" y="915" />
              <mxPoint x="480" y="915" />
            </Array>
          </mxGeometry>
        </mxCell>
        <mxCell id="PabJdVPp8om9s6cSy0Pp-27" value="&lt;b&gt;Fccom Microservices&lt;/b&gt;" style="outlineConnect=0;gradientColor=none;html=1;whiteSpace=wrap;fontSize=12;fontStyle=0;strokeColor=#879196;fillColor=none;verticalAlign=top;align=left;fontColor=#879196;dashed=1;spacingTop=3;" vertex="1" parent="PabJdVPp8om9s6cSy0Pp-2">
          <mxGeometry x="742" y="740" width="790" height="250" as="geometry" />
        </mxCell>
        <mxCell id="PabJdVPp8om9s6cSy0Pp-29" style="edgeStyle=orthogonalEdgeStyle;rounded=1;orthogonalLoop=1;jettySize=auto;html=1;entryX=0;entryY=0.5;entryDx=0;entryDy=0;" edge="1" parent="PabJdVPp8om9s6cSy0Pp-2" source="PabJdVPp8om9s6cSy0Pp-19" target="PabJdVPp8om9s6cSy0Pp-27">
          <mxGeometry relative="1" as="geometry" />
        </mxCell>
        <mxCell id="PabJdVPp8om9s6cSy0Pp-37" style="edgeStyle=orthogonalEdgeStyle;rounded=1;orthogonalLoop=1;jettySize=auto;html=1;entryX=0.5;entryY=0;entryDx=0;entryDy=0;startArrow=classic;startFill=1;" edge="1" parent="PabJdVPp8om9s6cSy0Pp-2" source="PabJdVPp8om9s6cSy0Pp-32" target="PabJdVPp8om9s6cSy0Pp-27">
          <mxGeometry relative="1" as="geometry" />
        </mxCell>
        <mxCell id="PabJdVPp8om9s6cSy0Pp-43" style="edgeStyle=orthogonalEdgeStyle;rounded=1;orthogonalLoop=1;jettySize=auto;html=1;entryX=0.5;entryY=1;entryDx=0;entryDy=0;entryPerimeter=0;exitX=0.75;exitY=0;exitDx=0;exitDy=0;" edge="1" parent="PabJdVPp8om9s6cSy0Pp-2" source="PabJdVPp8om9s6cSy0Pp-27" target="PabJdVPp8om9s6cSy0Pp-40">
          <mxGeometry relative="1" as="geometry" />
        </mxCell>
        <mxCell id="PabJdVPp8om9s6cSy0Pp-55" value="Fccom-Job" style="sketch=0;points=[[0,0,0],[0.25,0,0],[0.5,0,0],[0.75,0,0],[1,0,0],[0,1,0],[0.25,1,0],[0.5,1,0],[0.75,1,0],[1,1,0],[0,0.25,0],[0,0.5,0],[0,0.75,0],[1,0.25,0],[1,0.5,0],[1,0.75,0]];outlineConnect=0;fontColor=#232F3E;gradientColor=#F78E04;gradientDirection=north;fillColor=#D05C17;strokeColor=#ffffff;dashed=0;verticalLabelPosition=bottom;verticalAlign=top;align=center;html=1;fontSize=12;fontStyle=0;aspect=fixed;shape=mxgraph.aws4.resourceIcon;resIcon=mxgraph.aws4.fargate;" vertex="1" parent="PabJdVPp8om9s6cSy0Pp-2">
          <mxGeometry x="780" y="890" width="70" height="70" as="geometry" />
        </mxCell>
        <mxCell id="PabJdVPp8om9s6cSy0Pp-62" value="Fccom-Flow" style="sketch=0;points=[[0,0,0],[0.25,0,0],[0.5,0,0],[0.75,0,0],[1,0,0],[0,1,0],[0.25,1,0],[0.5,1,0],[0.75,1,0],[1,1,0],[0,0.25,0],[0,0.5,0],[0,0.75,0],[1,0.25,0],[1,0.5,0],[1,0.75,0]];outlineConnect=0;fontColor=#232F3E;gradientColor=#F78E04;gradientDirection=north;fillColor=#D05C17;strokeColor=#ffffff;dashed=0;verticalLabelPosition=bottom;verticalAlign=top;align=center;html=1;fontSize=12;fontStyle=0;aspect=fixed;shape=mxgraph.aws4.resourceIcon;resIcon=mxgraph.aws4.fargate;" vertex="1" parent="PabJdVPp8om9s6cSy0Pp-2">
          <mxGeometry x="910" y="890" width="70" height="70" as="geometry" />
        </mxCell>
        <mxCell id="PabJdVPp8om9s6cSy0Pp-63" value="Fccom-Mambu" style="sketch=0;points=[[0,0,0],[0.25,0,0],[0.5,0,0],[0.75,0,0],[1,0,0],[0,1,0],[0.25,1,0],[0.5,1,0],[0.75,1,0],[1,1,0],[0,0.25,0],[0,0.5,0],[0,0.75,0],[1,0.25,0],[1,0.5,0],[1,0.75,0]];outlineConnect=0;fontColor=#232F3E;gradientColor=#F78E04;gradientDirection=north;fillColor=#D05C17;strokeColor=#ffffff;dashed=0;verticalLabelPosition=bottom;verticalAlign=top;align=center;html=1;fontSize=12;fontStyle=0;aspect=fixed;shape=mxgraph.aws4.resourceIcon;resIcon=mxgraph.aws4.fargate;" vertex="1" parent="PabJdVPp8om9s6cSy0Pp-2">
          <mxGeometry x="1050" y="890" width="70" height="70" as="geometry" />
        </mxCell>
        <mxCell id="PabJdVPp8om9s6cSy0Pp-76" style="edgeStyle=orthogonalEdgeStyle;rounded=1;orthogonalLoop=1;jettySize=auto;html=1;entryX=1;entryY=0.5;entryDx=0;entryDy=0;exitX=0.5;exitY=1;exitDx=0;exitDy=0;exitPerimeter=0;startArrow=classic;startFill=1;" edge="1" parent="PabJdVPp8om9s6cSy0Pp-2" source="PabJdVPp8om9s6cSy0Pp-74" target="PabJdVPp8om9s6cSy0Pp-27">
          <mxGeometry relative="1" as="geometry" />
        </mxCell>
        <mxCell id="PabJdVPp8om9s6cSy0Pp-11" value="" style="sketch=0;outlineConnect=0;fontColor=#232F3E;gradientColor=none;fillColor=#4D27AA;strokeColor=none;dashed=0;verticalLabelPosition=bottom;verticalAlign=top;align=center;html=1;fontSize=12;fontStyle=0;aspect=fixed;pointerEvents=1;shape=mxgraph.aws4.internet_gateway;" vertex="1" parent="PabJdVPp8om9s6cSy0Pp-2">
          <mxGeometry x="-40" y="420" width="70" height="70" as="geometry" />
        </mxCell>
        <mxCell id="PabJdVPp8om9s6cSy0Pp-80" value="ELT" style="shape=image;verticalLabelPosition=bottom;labelBackgroundColor=default;verticalAlign=top;aspect=fixed;imageAspect=0;image=data:image/png,iVBORw0KGgoAAAANSUhEUgAAAPAAAADSCAMAAABD772dAAAAllBMVEX///80OL8yNr8vM74tMb4bIbslKrwaILsoLb1xc88kKbwhJrwUG7ohJ7wdI7srML0+QsGqq+HV1vD29vy+v+fq6vdfYcr7+/44PMEPF7rc3fLg4fN6fNJOUcW3uOXS0+/x8fqys+OMjtcAALdJTMSbndzHyOump9+AgtOSlNljZstXWsiVltlUV8fDxOlrbs1FSMN/gdN5enZ+AAAOMklEQVR4nO2d6WKyOhCGJWGJgMEdqQtIRa3Wpfd/c4cEhAAJ+rUutCfPr1ZA85JtkkwmrZZEIpFIJBKJRCKRSCQSiUQikUgkEolE0ljcj6/2bneahdHibfDqxDwF33ZUVXWQ3tHM1Yf/6uQ8gb6tpACIDBD9/XyOdCUH6Kj36gTdC1fw+cBSWIB2emqyHoO7nq1E1wYdpYi+f2bSHkE/hJo3ElycjtVEJ9SwZiCq+Hfn8fpgIGBG/IujmZHqNff9WH1ogPhvLLj7N7A+azCumBP+1chz0nLc2Saf+BZRLCwPTedtTHNMsZbcq6us+jpZKV6TbsqZPS+Nd8QN7aS8AsC73Pdg1jRbeRsemfH/5m/sjtfg0sPqG87lES28nBsm8efW8FmpvB+hfREEtIBzfa/mPZER9DfbWZRYlr04i9HnU9N6B4KDmclRed2Mb+d640ZN0x0HGYc38qgneKTJ9BGTf50F5462o7CK077YDuNLc6gAR2SYxXVhsd2r2PbwZDyLjs1oz9cYMGIsXqKM/A7AaLfGbit0airxeo87DgSANIXQ0Y13tH295qHH6FUAz6qcGkzublF+Nzq7G13Yc0/3BmTeFMK7YfBQKTdxLOhVnC3nnj7OJUatOZPH6jki+vUPzlM9j6kpCup8Bg+WchNHo6BX0XkDPj8XjP3W4MzkcVrCtepsQGgwXwvsbfBwLbfgF/OXCqryphWvt7XSUwqAZeNji5nL0GzI9MioU065MeXcNvBKJWDpoNJz6qH4SFTIXyBoqp79GtwuLKVbsblJ62bvBZzpB4PQ04vvyixU/kVBL+7zf3/2bMG7cj7FggPejZt8ZsdM26dgo1oFyQYz5vBt9hIK+T8fek82wnuaUsHmpiFgtOF2eou7PLM9uLrLbh/hwqvQ3rg//2U/ebZkZJcrsDCHW5/M1A5yjpePh10tqxRG1r4PSjWF+53B3uQOUx7IqlKBSbIFzQvb+QJtnOXZ+qDR3hYY2ah4sFKvf+fSUp89c7ApTkBeCqygfRkorArVy7tVf2foutHNTPCgW9KrmJUZhfUqLvTwuSU6MDkFWjB2oPd3CwMIhHIV06iXN7e+UtYbm6NB4auGe1oR8HOH0bNqC02FCMe27rzwRFyuOSVy1OY1DFDJan1wDJFF65Jo6uxBvHnVdNG0icuZeyi+IxUXi+pgNGwbDvdbgYXan1EUtle25aRvBIvK0mM4VQpemjQk7hvdefEhYBc62IXt8eXSe1UUo+bZD88P18gyNUQpq5ugGoBSeTX3hdfTQzq3YeDh8TvnR7Hl1+AYtV3zWGGqh+BMChV58KGJM7n4XnkDyscxqAwackQ9MWVW1gOdYk7xW60KzvixAsssy2tiDCLLlzKqWKOgPBT2FX6Hx6Ken2xF73lG1oVaA2hceRJUTOXIulKune6T9QaCPil9/buaR6Nq5Qeo/IaCtlf3Rjtj8SznY1iYNcmJe8iadX3eo1CpZFh/jkXlutSZPYW2oBO+JIk7z5PAfVfOgXPjhNswgk53/UBlfNxyd1pJlSHsJENuf9bhZVrPqrRe0MRPHhJS3oRWR65YlA0T/ruyefe7m67m5JNDqm6sXuMEs6yvwjR1Gj9pS+6YkkzT8dvd9fasGdiyLM1WdpvnGlc52xusoXhAz2lKxQaLuPd2p+vjcd0PHijoGoe6PiOXoFeHMwdxa+fx5ncbArrNwgd4VRxIuJxZzoza3vu1jMojACHQAp/5lM8C1lYFQzA59Hp8XJfuUi4jzd6HUa/3ebJrBhyE5i6LrwUtrQiIdF1H9bYKwW5qLR7WDJV+Qu0w65X0rnfD3wLgVysTsNGvJ/5bcBaJGwFnhHcfmuq+9DDBcP5qaXweVqTrpnhfCafRAqB2xAgcpN9inolHlS+l0i1BrJ7P6QIIT66pzqJNuNKumuANdbpcFy0toI39uCgOjnO+QQKsXjJu8lfX6gLXBej1FMf/QMsGRRF3IYxxSNlesdEa2ky7BYcTi6l3w+qwAkwC5lHBkuMFrldbA8h9cuJxfsFYWJYnf8qTzt3apqupvvHMymGntEPjq5SF5f0eR44fTPMF55YHLLuSukohCwEsP1s7W9LUIp0301plsnFRaMKr+z3WdYPphjZauXtHJYNbxVoKlPrrZcxmdkv5WprF8ToYMllocmbN6yxx61i9vxGk1jRAvEWtfKod6BzbWOw7IPBMbQLpNJ7zxbvYyyxP/hSGePUXqM0cPLTozowYzF1PcTO3fS/gXRevxEHOmlpDoIstotFcLzUgEb+TEY8u0XP9Nv6FAfGOhSI/i8R3sOrkniCe9OSXmGZAVj110T7YkYoAUDXBxLp4Wtt+WHJ/zlQDNRkyahvGWNTivomsy1qHp5czcwTe/lcZifqlhg7/U0YeML73pCiH+b16c9ia35xjFNXhxi48pATGN8dyR0ErrTXVzLqw+eZYTmBMN3h9+MI3/ZUr7pYJdkPXWX4O5NrS6pO9RZ+HYLRkN3MO/g58cKsw4g68/gIDrs97U1eV7gDfld5utJH1E9bcGowaOj37c/rl/dWUJ29QeSJrrhM06Lw+csNj2PD1en/U5OjPLa7eP9pgTWc2d5EFGH9RrzvciTYVeg2ex6pjVBdN54QtwdSsA3+tRRnOw2E/KNhL7uBtGLUndkcVTb3j8S82sHzF0zRwPuxO7ZjTeH6e6EYHCcWSaEu/OPwfIbIQABCqFAjrPZkUgA9Nn+K4ShBqNzrLx8YG5IYK/G2MPjTzhg0REINes6cob8ddHjS9VjNA2uFv9b3TzcHoOPyyDXVj8vHr626V0WI28bCJ4MUJE5AQb6bmjV+22erxBH4vHJ8VZFqaYelwcgiX/V/c7d7MIBjFBH+ljZJIJBKJRCKRSCQSiUQikfx1du+e9/6KkF+vguxgaegu6MfwvxY8mM2+Zu3gpel5OAXBpuM4v/Z8tBspCCZr45oU/LeQgn+L4PJSmHBprHSBFUx3nXJPkGsIvZhNnCGDRXs/6e7Dy8KuH45Xk/M4KufVYDGbdyerMXuQciZ4vVz2yEox2iwJ+bZEdxiexvP9bOG2giEh+bQX30S9IvrR6bAabysuA4NjuDus9qfofqEDQcc03/utjWmRU8sgMnZB/OkRaHSZG+pGYWOVG1r0PnLjKpOcCd7aZuIKj8wYL8qeMi2kQggdS++9vVsWdhI57/Fd74OWr2jxZQAdresXf83E9IKqa5N7nQZAohNY/iw/MctBo9ZH7vAMOsxGlL7DuPZD7xKtIRNcjMF72Zc6NBDzdSuQHd4wIFvQ7VbE/JrH6DqajLcQwPP7NAxdehadowBk4eRwBXUeYuKmYeEOdSXMA9MnxwVBHeMO9am8uJzlgg2UpNEhpxcYyeUkdg9wOtjS4x+g/zCC1ZlFf8yiT4I87H8a80fVrUS4Kjov5d8Fx4qtbnT0j2EnSZsCtH1v7R/bdMfkJTDjiOzrB3i18f3hjB4Plu7KyQQPPz4+iCIn/Iz/CqlH6dJOyvh24a97W2SWBSsq0A6bo7+OTPJ+1cuRGclzjrbbHBchID7J1ajr3xd8iVwxSkKwwEn6Mo9k88JlDzsJOZtFXZqSMA9pVM7C4EEpttJTGnfd2F4a9p5SKtKKc6m47o6UmzS06ZTmL26n5XgBIEnWHVwqaJHOCwvdIwmcLMGkVqYH0dKdG3lE6TdaAUdlwTRqDdMP70i2GcxgmRwWyAqG80wF7cNRUhHoIdVa7qYZkBcsOuP5XwWzB/8QVZ28e6A7zJIzvEhkf3YzLJGZBF2pEdynRYTdsEk2FrOC2QMjyPaupNT07fJz07hUA+1nYglEMNsakEaUDaVC7AgaaYSeD4aZ1JE48EngpBrBn6SEoID5wX5JMHuQFomUkARFJMGtgV5IKfkq/PMgL2XBJB+ZHKYvgAY2oPGEwCxnBy9HetYIJmGXiuGk6gTnuU8LdzH+xci6y3bra4JJ8BIa7j+Jgqg6GcTVMskEsWCXdHRmwWa4STA9QrF8ysAZiGNsPEBwpKfOhQXMK4KNSsJvEkxDJpSPg4nbP/DzzV43C6ahVwC1KBi0K4KJJKuww+M2weXmjAqGTxVM4tRA/ob2K0W6eI7fbXWYV6S7dzkx7mbBvsYPFdaqbbTI48VoQ7cJPoNKZLU3/NxGi24J5p9WUhGcF0a6cbrwVLkf5gum3Vmn8Cukp7pDHJ+bBdMTwvmhoajgS7mlw68sXb5BTWfGJKS221XB04rhQQy9pI38GbcLpifk6bxN7V8Oc04esSWZyPfURFRXweX/nqHcIrh1InY1zk3JPhmt1B0AdCu3C25tSU+sz49pdgX+Nq1RtItGs6Qc01Bqens6GIwWweUgQdXpUV39ZPx1g+DkJFfrlCTNjYhe9R6Rqf9BcIueaAgtc34Kv04TC+vd5PMkpIODaVJdmlIHmyZ+J4bghl4EpnVu7ybYqYyHBYJbay8ZBE9mm2hGJ1Kgytz6FMHumG6VBTC2t1TAmNYzapSk4SDT89Xj60mb+mGk/6vELlfV8oyHQHBrmARuBo6ebHxDk7tMefyLYHIENjPHA5z39EZ3Rcb1l7AzSzvdmQeTErD0ss0vAJ9860bBrekq33oNVJt3DM43cGzDeGe6jYMX/88Yv11yPe8Mgk9Fs/TYxNI7GmLOug47WMeXBm16wpplYcNJY4UFba2D1LhcWGjT6r9jrKFE8LsRfzkjuE8+YDqjRVczkao6yNJ295q3nBIGt/8ffzKMwvBzsyimYLDehPl7CvzhcM1MyASL8LTffQ1dcqMfk3z8Fn83O23jkg8K+52my7B9mn0Og++pk0gkEolEIpFIJBKJRCKRSCQSiUQikUjE/Ac6IeuNdiAW4gAAAABJRU5ErkJggg==;" vertex="1" parent="PabJdVPp8om9s6cSy0Pp-2">
          <mxGeometry x="1160" y="890" width="80" height="70" as="geometry" />
        </mxCell>
        <mxCell id="PabJdVPp8om9s6cSy0Pp-21" style="edgeStyle=orthogonalEdgeStyle;rounded=0;orthogonalLoop=1;jettySize=auto;html=1;" edge="1" parent="PabJdVPp8om9s6cSy0Pp-1" source="PabJdVPp8om9s6cSy0Pp-9" target="PabJdVPp8om9s6cSy0Pp-4">
          <mxGeometry relative="1" as="geometry" />
        </mxCell>
        <mxCell id="PabJdVPp8om9s6cSy0Pp-9" value="" style="sketch=0;points=[[0,0,0],[0.25,0,0],[0.5,0,0],[0.75,0,0],[1,0,0],[0,1,0],[0.25,1,0],[0.5,1,0],[0.75,1,0],[1,1,0],[0,0.25,0],[0,0.5,0],[0,0.75,0],[1,0.25,0],[1,0.5,0],[1,0.75,0]];outlineConnect=0;fontColor=#232F3E;gradientColor=#F54749;gradientDirection=north;fillColor=#C7131F;strokeColor=#ffffff;dashed=0;verticalLabelPosition=bottom;verticalAlign=top;align=center;html=1;fontSize=12;fontStyle=0;aspect=fixed;shape=mxgraph.aws4.resourceIcon;resIcon=mxgraph.aws4.waf;" vertex="1" parent="PabJdVPp8om9s6cSy0Pp-1">
          <mxGeometry x="60" y="210" width="70" height="70" as="geometry" />
        </mxCell>
        <mxCell id="PabJdVPp8om9s6cSy0Pp-10" value="" style="sketch=0;points=[[0,0,0],[0.25,0,0],[0.5,0,0],[0.75,0,0],[1,0,0],[0,1,0],[0.25,1,0],[0.5,1,0],[0.75,1,0],[1,1,0],[0,0.25,0],[0,0.5,0],[0,0.75,0],[1,0.25,0],[1,0.5,0],[1,0.75,0]];outlineConnect=0;fontColor=#232F3E;gradientColor=#945DF2;gradientDirection=north;fillColor=#5A30B5;strokeColor=#ffffff;dashed=0;verticalLabelPosition=bottom;verticalAlign=top;align=center;html=1;fontSize=12;fontStyle=0;aspect=fixed;shape=mxgraph.aws4.resourceIcon;resIcon=mxgraph.aws4.cloudfront;" vertex="1" parent="PabJdVPp8om9s6cSy0Pp-1">
          <mxGeometry x="220" y="20" width="70" height="70" as="geometry" />
        </mxCell>
        <mxCell id="PabJdVPp8om9s6cSy0Pp-73" value="CloudWatch" style="sketch=0;points=[[0,0,0],[0.25,0,0],[0.5,0,0],[0.75,0,0],[1,0,0],[0,1,0],[0.25,1,0],[0.5,1,0],[0.75,1,0],[1,1,0],[0,0.25,0],[0,0.5,0],[0,0.75,0],[1,0.25,0],[1,0.5,0],[1,0.75,0]];points=[[0,0,0],[0.25,0,0],[0.5,0,0],[0.75,0,0],[1,0,0],[0,1,0],[0.25,1,0],[0.5,1,0],[0.75,1,0],[1,1,0],[0,0.25,0],[0,0.5,0],[0,0.75,0],[1,0.25,0],[1,0.5,0],[1,0.75,0]];outlineConnect=0;fontColor=#232F3E;gradientColor=#F34482;gradientDirection=north;fillColor=#BC1356;strokeColor=#ffffff;dashed=0;verticalLabelPosition=bottom;verticalAlign=top;align=center;html=1;fontSize=12;fontStyle=0;aspect=fixed;shape=mxgraph.aws4.resourceIcon;resIcon=mxgraph.aws4.cloudwatch_2;" vertex="1" parent="PabJdVPp8om9s6cSy0Pp-1">
          <mxGeometry x="2030" y="1082" width="78" height="78" as="geometry" />
        </mxCell>
        <mxCell id="PabJdVPp8om9s6cSy0Pp-77" value="Amazon Rekognition" style="sketch=0;points=[[0,0,0],[0.25,0,0],[0.5,0,0],[0.75,0,0],[1,0,0],[0,1,0],[0.25,1,0],[0.5,1,0],[0.75,1,0],[1,1,0],[0,0.25,0],[0,0.5,0],[0,0.75,0],[1,0.25,0],[1,0.5,0],[1,0.75,0]];outlineConnect=0;fontColor=#232F3E;gradientColor=#4AB29A;gradientDirection=north;fillColor=#116D5B;strokeColor=#ffffff;dashed=0;verticalLabelPosition=bottom;verticalAlign=top;align=center;html=1;fontSize=12;fontStyle=0;aspect=fixed;shape=mxgraph.aws4.resourceIcon;resIcon=mxgraph.aws4.rekognition_2;" vertex="1" parent="PabJdVPp8om9s6cSy0Pp-1">
          <mxGeometry x="2030" y="950" width="78" height="78" as="geometry" />
        </mxCell>
        <mxCell id="PabJdVPp8om9s6cSy0Pp-78" value="S3 bucket" style="sketch=0;points=[[0,0,0],[0.25,0,0],[0.5,0,0],[0.75,0,0],[1,0,0],[0,1,0],[0.25,1,0],[0.5,1,0],[0.75,1,0],[1,1,0],[0,0.25,0],[0,0.5,0],[0,0.75,0],[1,0.25,0],[1,0.5,0],[1,0.75,0]];outlineConnect=0;fontColor=#232F3E;gradientColor=#60A337;gradientDirection=north;fillColor=#277116;strokeColor=#ffffff;dashed=0;verticalLabelPosition=bottom;verticalAlign=top;align=center;html=1;fontSize=12;fontStyle=0;aspect=fixed;shape=mxgraph.aws4.resourceIcon;resIcon=mxgraph.aws4.s3;" vertex="1" parent="PabJdVPp8om9s6cSy0Pp-1">
          <mxGeometry x="2030" y="820" width="78" height="78" as="geometry" />
        </mxCell>
        <mxCell id="PabJdVPp8om9s6cSy0Pp-20" style="edgeStyle=orthogonalEdgeStyle;rounded=0;orthogonalLoop=1;jettySize=auto;html=1;" edge="1" parent="1" source="PabJdVPp8om9s6cSy0Pp-12" target="PabJdVPp8om9s6cSy0Pp-9">
          <mxGeometry relative="1" as="geometry" />
        </mxCell>
        <mxCell id="PabJdVPp8om9s6cSy0Pp-12" value="" style="sketch=0;pointerEvents=1;shadow=0;dashed=0;html=1;strokeColor=none;fillColor=#505050;labelPosition=center;verticalLabelPosition=bottom;verticalAlign=top;outlineConnect=0;align=center;shape=mxgraph.office.users.mobile_user;" vertex="1" parent="1">
          <mxGeometry x="-180" y="375" width="60" height="60" as="geometry" />
        </mxCell>
        <mxCell id="PabJdVPp8om9s6cSy0Pp-13" value="Trusting Social, Fccom" style="shape=mxgraph.gcp2.doubleRect;strokeColor=#dddddd;shadow=1;strokeWidth=1;" vertex="1" parent="1">
          <mxGeometry x="-220" y="1150" width="190" height="70" as="geometry" />
        </mxCell>
        <mxCell id="PabJdVPp8om9s6cSy0Pp-14" value="&lt;font color=&quot;#000000&quot;&gt;Name&lt;/font&gt;&lt;br&gt;Partner Interconnect" style="sketch=0;dashed=0;connectable=0;html=1;fillColor=#5184F3;strokeColor=none;shape=mxgraph.gcp2.hexIcon;prIcon=partner_interconnect;part=1;labelPosition=right;verticalLabelPosition=middle;align=left;verticalAlign=middle;spacingLeft=5;fontColor=#999999;fontSize=12;" vertex="1" parent="PabJdVPp8om9s6cSy0Pp-13">
          <mxGeometry width="40" height="40" relative="1" as="geometry">
            <mxPoint x="5" y="-19.5" as="offset" />
          </mxGeometry>
        </mxCell>
        <mxCell id="PabJdVPp8om9s6cSy0Pp-25" style="edgeStyle=orthogonalEdgeStyle;rounded=1;orthogonalLoop=1;jettySize=auto;html=1;entryX=1;entryY=0.5;entryDx=0;entryDy=0;" edge="1" parent="1" source="PabJdVPp8om9s6cSy0Pp-5" target="PabJdVPp8om9s6cSy0Pp-13">
          <mxGeometry relative="1" as="geometry" />
        </mxCell>
        <mxCell id="PabJdVPp8om9s6cSy0Pp-56" value="Fccom-Admin" style="sketch=0;points=[[0,0,0],[0.25,0,0],[0.5,0,0],[0.75,0,0],[1,0,0],[0,1,0],[0.25,1,0],[0.5,1,0],[0.75,1,0],[1,1,0],[0,0.25,0],[0,0.5,0],[0,0.75,0],[1,0.25,0],[1,0.5,0],[1,0.75,0]];outlineConnect=0;fontColor=#232F3E;gradientColor=#F78E04;gradientDirection=north;fillColor=#D05C17;strokeColor=#ffffff;dashed=0;verticalLabelPosition=bottom;verticalAlign=top;align=center;html=1;fontSize=12;fontStyle=0;aspect=fixed;shape=mxgraph.aws4.resourceIcon;resIcon=mxgraph.aws4.fargate;" vertex="1" parent="1">
          <mxGeometry x="930" y="1040" width="70" height="70" as="geometry" />
        </mxCell>
        <mxCell id="PabJdVPp8om9s6cSy0Pp-57" value="Fccom-Customer" style="sketch=0;points=[[0,0,0],[0.25,0,0],[0.5,0,0],[0.75,0,0],[1,0,0],[0,1,0],[0.25,1,0],[0.5,1,0],[0.75,1,0],[1,1,0],[0,0.25,0],[0,0.5,0],[0,0.75,0],[1,0.25,0],[1,0.5,0],[1,0.75,0]];outlineConnect=0;fontColor=#232F3E;gradientColor=#F78E04;gradientDirection=north;fillColor=#D05C17;strokeColor=#ffffff;dashed=0;verticalLabelPosition=bottom;verticalAlign=top;align=center;html=1;fontSize=12;fontStyle=0;aspect=fixed;shape=mxgraph.aws4.resourceIcon;resIcon=mxgraph.aws4.fargate;" vertex="1" parent="1">
          <mxGeometry x="1060" y="1040" width="70" height="70" as="geometry" />
        </mxCell>
        <mxCell id="PabJdVPp8om9s6cSy0Pp-58" value="Fccom-Loan" style="sketch=0;points=[[0,0,0],[0.25,0,0],[0.5,0,0],[0.75,0,0],[1,0,0],[0,1,0],[0.25,1,0],[0.5,1,0],[0.75,1,0],[1,1,0],[0,0.25,0],[0,0.5,0],[0,0.75,0],[1,0.25,0],[1,0.5,0],[1,0.75,0]];outlineConnect=0;fontColor=#232F3E;gradientColor=#F78E04;gradientDirection=north;fillColor=#D05C17;strokeColor=#ffffff;dashed=0;verticalLabelPosition=bottom;verticalAlign=top;align=center;html=1;fontSize=12;fontStyle=0;aspect=fixed;shape=mxgraph.aws4.resourceIcon;resIcon=mxgraph.aws4.fargate;" vertex="1" parent="1">
          <mxGeometry x="1195" y="1040" width="70" height="70" as="geometry" />
        </mxCell>
        <mxCell id="PabJdVPp8om9s6cSy0Pp-59" value="Fccom-GLExternal" style="sketch=0;points=[[0,0,0],[0.25,0,0],[0.5,0,0],[0.75,0,0],[1,0,0],[0,1,0],[0.25,1,0],[0.5,1,0],[0.75,1,0],[1,1,0],[0,0.25,0],[0,0.5,0],[0,0.75,0],[1,0.25,0],[1,0.5,0],[1,0.75,0]];outlineConnect=0;fontColor=#232F3E;gradientColor=#F78E04;gradientDirection=north;fillColor=#D05C17;strokeColor=#ffffff;dashed=0;verticalLabelPosition=bottom;verticalAlign=top;align=center;html=1;fontSize=12;fontStyle=0;aspect=fixed;shape=mxgraph.aws4.resourceIcon;resIcon=mxgraph.aws4.fargate;" vertex="1" parent="1">
          <mxGeometry x="1330" y="1040" width="70" height="70" as="geometry" />
        </mxCell>
        <mxCell id="PabJdVPp8om9s6cSy0Pp-60" value="Fccom-Webhooks" style="sketch=0;points=[[0,0,0],[0.25,0,0],[0.5,0,0],[0.75,0,0],[1,0,0],[0,1,0],[0.25,1,0],[0.5,1,0],[0.75,1,0],[1,1,0],[0,0.25,0],[0,0.5,0],[0,0.75,0],[1,0.25,0],[1,0.5,0],[1,0.75,0]];outlineConnect=0;fontColor=#232F3E;gradientColor=#F78E04;gradientDirection=north;fillColor=#D05C17;strokeColor=#ffffff;dashed=0;verticalLabelPosition=bottom;verticalAlign=top;align=center;html=1;fontSize=12;fontStyle=0;aspect=fixed;shape=mxgraph.aws4.resourceIcon;resIcon=mxgraph.aws4.fargate;" vertex="1" parent="1">
          <mxGeometry x="1460" y="1040" width="70" height="70" as="geometry" />
        </mxCell>
        <mxCell id="PabJdVPp8om9s6cSy0Pp-61" value="Fccom-Report&amp;nbsp;" style="sketch=0;points=[[0,0,0],[0.25,0,0],[0.5,0,0],[0.75,0,0],[1,0,0],[0,1,0],[0.25,1,0],[0.5,1,0],[0.75,1,0],[1,1,0],[0,0.25,0],[0,0.5,0],[0,0.75,0],[1,0.25,0],[1,0.5,0],[1,0.75,0]];outlineConnect=0;fontColor=#232F3E;gradientColor=#F78E04;gradientDirection=north;fillColor=#D05C17;strokeColor=#ffffff;dashed=0;verticalLabelPosition=bottom;verticalAlign=top;align=center;html=1;fontSize=12;fontStyle=0;aspect=fixed;shape=mxgraph.aws4.resourceIcon;resIcon=mxgraph.aws4.fargate;" vertex="1" parent="1">
          <mxGeometry x="1590" y="1040" width="70" height="70" as="geometry" />
        </mxCell>
      </root>
    </mxGraphModel>
  </diagram>
</mxfile>
